<?xml version="1.0" standalone="no"?>
<!DOCTYPE svg PUBLIC "-//W3C//DTD SVG 20010904//EN"
 "http://www.w3.org/TR/2001/REC-SVG-20010904/DTD/svg10.dtd">
<svg version="1.0" xmlns="http://www.w3.org/2000/svg"
 width="304.000000pt" height="304.000000pt" viewBox="0 0 304.000000 304.000000"
 preserveAspectRatio="xMidYMid meet">
<metadata>
Created by potrace 1.11, written by Peter Selinger 2001-2013
</metadata>
<g transform="translate(0.000000,304.000000) scale(0.100000,-0.100000)"
fill="#000000" stroke="none">
<path d="M7 3023 c6 -15 33 -18 33 -3 0 6 5 10 10 10 12 0 3 -48 -13 -67 -6
-9 -5 -13 3 -13 8 0 11 -3 7 -6 -3 -3 -14 -1 -24 5 -10 6 -12 11 -5 11 16 0
16 27 -1 33 -11 4 -14 -16 -13 -101 l1 -106 95 2 c234 7 335 14 347 24 9 7 13
7 13 -1 0 -16 132 -15 148 1 10 10 14 10 20 1 8 -12 159 -12 179 0 4 2 20 3
36 1 15 -1 27 2 27 7 0 5 5 9 11 9 5 0 7 -4 4 -10 -4 -6 13 -10 45 -10 32 0
49 4 45 10 -3 6 -1 10 4 10 6 0 11 -7 11 -15 0 -9 9 -15 23 -15 20 1 21 2 5
14 -23 17 -23 26 2 26 11 0 20 7 20 15 0 9 6 12 15 9 8 -4 15 -1 15 5 0 17
-28 13 -39 -6 -9 -15 -10 -14 -11 10 0 23 -4 28 -22 25 -17 -2 -24 3 -26 20
-2 12 -8 22 -13 22 -5 0 -14 -10 -20 -22 -9 -21 -9 -21 -4 4 6 30 -10 47 -28
29 -17 -17 -27 -13 -27 8 0 11 -5 23 -11 27 -8 5 -10 -1 -7 -20 7 -34 -9 -34
-24 2 l-11 27 -8 -30 c-6 -21 -4 -34 6 -45 17 -19 19 -36 5 -45 -5 -3 -7 0 -5
8 3 7 -3 22 -15 32 -18 16 -30 8 -13 -9 4 -4 9 -19 11 -34 2 -15 0 -23 -5 -18
-8 8 -9 13 -12 41 0 8 -12 25 -26 37 -14 12 -25 28 -25 35 0 7 -4 13 -10 13
-15 0 -12 47 3 53 7 4 6 6 -4 6 -18 1 -29 -18 -29 -51 0 -12 -3 -18 -7 -14 -4
4 -7 19 -8 34 0 24 -4 27 -40 30 -36 2 -38 1 -22 -11 22 -18 22 -25 0 -23 -14
1 -18 -6 -16 -26 1 -16 -2 -28 -8 -28 -5 0 -9 5 -9 11 0 5 -5 7 -10 4 -14 -9
-13 8 2 23 9 9 9 15 1 23 -8 8 -13 5 -18 -10 -3 -12 -11 -19 -16 -16 -5 4 -9
-5 -9 -19 0 -14 -5 -28 -10 -31 -6 -4 -10 12 -10 39 0 39 -3 46 -20 46 -11 0
-20 5 -20 10 0 6 -4 10 -10 10 -6 0 -6 -9 0 -26 13 -34 14 -33 -17 -31 -19 2
-37 -6 -56 -25 -16 -16 -33 -25 -39 -22 -7 5 -5 11 5 19 10 7 17 18 17 26 -1
10 -4 9 -14 -3 -7 -10 -18 -18 -23 -18 -6 0 -18 -15 -27 -32 -17 -32 -17 -32
-11 -5 4 21 0 33 -21 52 l-26 25 26 10 c15 5 32 10 37 10 5 0 9 5 9 11 0 11
-28 9 -64 -6 -14 -6 -17 -5 -12 3 4 7 3 12 -2 12 -5 0 -13 -10 -16 -22 l-6
-23 -19 23 c-11 12 -24 22 -30 22 -6 0 -11 -10 -12 -22 l0 -23 -9 23 c-9 21
-15 23 -84 21 -56 -2 -73 -6 -69 -16z m493 -53 c-12 -23 -16 -24 -26 -8 -4 6
-3 8 3 5 6 -4 13 0 17 8 3 8 8 15 11 15 3 0 1 -9 -5 -20z m-251 -14 c11 -8 13
-8 8 1 -4 6 -3 14 3 18 8 5 30 -32 30 -51 0 -10 -39 -3 -42 8 -3 7 -9 8 -18 3
-10 -6 -9 -11 5 -22 16 -11 17 -13 3 -13 -9 0 -20 5 -23 10 -9 15 -35 12 -35
-4 0 -8 -4 -18 -10 -21 -5 -3 -10 3 -10 15 0 15 8 22 30 27 17 3 30 9 30 13 0
14 -13 19 -30 10 -13 -7 -20 -6 -23 4 -3 8 -3 17 0 20 8 7 65 -5 82 -18z m461
-21 c0 -8 -4 -17 -10 -20 -6 -4 -10 5 -10 20 0 15 4 24 10 20 6 -3 10 -12 10
-20z m-270 5 c0 -5 -2 -10 -4 -10 -3 0 -8 5 -11 10 -3 6 -1 10 4 10 6 0 11 -4
11 -10z m56 0 c8 0 14 -4 14 -8 0 -5 -13 -7 -30 -4 -16 2 -30 9 -30 14 0 6 7
7 16 4 9 -3 22 -6 30 -6z m68 -22 c-9 -31 -14 -35 -24 -18 -5 9 -5 19 2 27 17
21 30 15 22 -9z m-519 2 c3 -5 15 -10 26 -10 11 0 19 -7 19 -17 0 -14 -2 -15
-9 -4 -5 7 -14 10 -20 7 -6 -4 -11 -2 -11 4 0 7 -9 9 -22 6 -13 -3 -17 -3 -10
0 6 3 10 10 6 15 -3 5 -1 9 5 9 5 0 13 -4 16 -10z m392 -6 c-3 -3 -12 -4 -19
-1 -8 3 -5 6 6 6 11 1 17 -2 13 -5z m57 -3 c17 -6 17 -8 3 -14 -8 -3 -21 1
-27 9 -13 15 -6 17 24 5z m389 -11 c8 -11 17 -17 20 -13 4 3 7 1 7 -5 0 -7 -6
-12 -12 -12 -15 1 -54 50 -39 50 5 0 16 -9 24 -20z m-153 -20 c0 -5 -2 -10 -4
-10 -3 0 -8 5 -11 10 -3 6 -1 10 4 10 6 0 11 -4 11 -10z m-145 -10 c3 -5 1
-10 -4 -10 -6 0 -11 5 -11 10 0 6 2 10 4 10 3 0 8 -4 11 -10z m-525 -10 c0 -5
-5 -10 -11 -10 -5 0 -7 5 -4 10 3 6 8 10 11 10 2 0 4 -4 4 -10z m814 1 c11 -4
15 -10 10 -13 -5 -4 -18 0 -29 8 -20 15 -12 17 19 5z m-404 -11 c0 -5 -8 -10
-17 -10 -15 0 -16 2 -3 10 19 12 20 12 20 0z m-177 -7 c-7 -2 -19 -2 -25 0 -7
3 -2 5 12 5 14 0 19 -2 13 -5z m320 0 c-7 -2 -19 -2 -25 0 -7 3 -2 5 12 5 14
0 19 -2 13 -5z m-443 -13 c0 -5 -5 -10 -11 -10 -5 0 -7 5 -4 10 3 6 8 10 11
10 2 0 4 -4 4 -10z"/>
<path d="M350 3031 c0 -6 5 -13 10 -16 6 -3 10 1 10 9 0 9 -4 16 -10 16 -5 0
-10 -4 -10 -9z"/>
<path d="M568 3033 c7 -3 16 -2 19 1 4 3 -2 6 -13 5 -11 0 -14 -3 -6 -6z"/>
<path d="M800 3024 c0 -14 -3 -14 -16 -3 -13 10 -17 10 -25 -2 -14 -22 -11
-29 11 -29 12 0 20 -7 20 -17 0 -15 -2 -16 -10 -3 -8 12 -10 12 -16 -3 -8 -22
-2 -29 20 -21 28 11 51 94 26 94 -5 0 -10 -7 -10 -16z"/>
<path d="M874 3032 c4 -7 1 -12 -8 -12 -8 0 -18 -4 -21 -10 -4 -6 5 -10 19
-10 27 0 36 23 14 36 -7 4 -8 3 -4 -4z"/>
<path d="M905 3030 c3 -5 8 -10 11 -10 2 0 4 5 4 10 0 6 -5 10 -11 10 -5 0 -7
-4 -4 -10z"/>
<path d="M1075 3030 c3 -5 8 -10 11 -10 2 0 4 5 4 10 0 6 -5 10 -11 10 -5 0
-7 -4 -4 -10z"/>
<path d="M1106 3031 c-12 -19 -1 -81 14 -81 19 0 1 -17 -25 -23 -13 -3 -9 -5
13 -6 26 -1 32 3 32 19 0 11 -4 20 -9 20 -6 0 -9 18 -8 40 2 38 -5 51 -17 31z"/>
<path d="M1179 3033 c-5 -59 -9 -77 -20 -84 -11 -7 -10 -9 4 -9 9 0 17 -7 17
-15 0 -9 -6 -12 -15 -9 -11 4 -15 0 -15 -16 0 -16 4 -20 15 -16 8 3 15 1 15
-4 0 -6 -8 -10 -17 -10 -13 0 -14 -3 -6 -11 6 -6 9 -18 6 -27 -6 -13 6 -14 93
-9 55 3 100 10 102 16 2 7 10 4 20 -5 14 -15 17 -15 28 0 9 12 13 14 16 5 5
-15 101 -13 106 2 2 5 7 7 10 5 17 -10 112 -17 112 -7 0 6 11 6 33 0 40 -11
202 0 169 12 -31 12 -27 16 8 11 17 -2 30 -8 30 -13 0 -7 129 -7 255 1 26 1
27 3 10 10 -19 8 -19 9 3 9 12 1 22 -3 22 -7 0 -5 42 -10 93 -10 91 -2 162 12
152 28 -3 5 -13 6 -23 3 -9 -3 -14 -3 -10 2 4 4 3 14 -3 22 -9 10 -8 13 5 13
13 0 16 5 11 20 -4 11 -2 20 4 20 6 0 11 5 11 10 0 18 -22 10 -27 -9 -3 -13
-10 -17 -20 -14 -12 5 -14 1 -8 -15 4 -13 2 -22 -4 -22 -6 0 -11 11 -11 25 0
14 -4 25 -10 25 -5 0 -10 7 -10 15 0 8 5 15 10 15 6 0 10 5 10 11 0 6 -7 8
-16 5 -12 -4 -14 -1 -9 14 5 16 2 20 -19 20 -25 0 -31 -9 -27 -39 2 -8 -2 -10
-11 -5 -7 4 -26 7 -42 6 l-30 -3 24 21 23 20 -80 0 c-61 0 -82 -4 -86 -14 -3
-8 -1 -17 6 -20 7 -2 -1 -5 -18 -5 -36 -1 -60 13 -51 28 5 7 -7 11 -36 10 -24
-1 -33 -4 -20 -6 24 -5 31 -23 8 -23 -8 0 -17 -8 -19 -17 -4 -14 -5 -13 -6 4
0 12 -6 25 -12 29 -7 4 -9 0 -5 -14 5 -14 -1 -28 -20 -47 -19 -19 -24 -21 -19
-8 4 10 10 33 13 51 4 28 2 32 -19 31 -13 0 -18 -3 -11 -6 6 -2 12 -9 12 -14
0 -6 -5 -7 -12 -3 -8 5 -9 -2 -5 -25 6 -29 5 -31 -13 -21 -25 14 -30 13 -24
-5 4 -8 1 -15 -5 -15 -6 0 -11 9 -11 20 0 13 -7 20 -20 20 -21 0 -27 15 -10
25 6 4 17 1 25 -5 18 -15 37 -9 40 11 2 12 -11 15 -62 17 -62 3 -65 2 -60 -18
4 -14 0 -20 -11 -20 -12 0 -13 -3 -4 -12 20 -20 14 -24 -24 -20 -32 4 -34 6
-20 21 20 22 20 32 2 25 -7 -3 -16 2 -19 10 -8 20 -27 21 -27 2 0 -8 -4 -17
-9 -20 -5 -4 -7 3 -4 14 4 15 0 20 -13 20 -15 0 -16 -2 -5 -9 7 -5 11 -13 8
-18 -3 -5 -2 -15 3 -23 7 -11 11 -11 24 -1 14 12 16 10 16 -8 0 -18 -4 -21
-22 -15 l-21 6 21 -27 c12 -15 22 -37 22 -49 -1 -19 -2 -20 -14 -4 -7 10 -16
15 -19 11 -4 -3 -2 -12 3 -18 8 -9 6 -14 -4 -18 -10 -4 -13 -1 -9 9 3 8 -1 14
-11 14 -9 0 -16 3 -17 8 0 4 -2 17 -5 30 -2 12 1 22 6 22 6 0 10 -9 10 -20 0
-19 11 -26 22 -14 11 10 -15 74 -30 74 -8 0 -12 6 -8 15 3 8 1 15 -4 15 -5 0
-11 -8 -13 -17 -4 -17 -5 -17 -6 0 0 9 -6 17 -12 17 -6 0 -9 -7 -5 -15 4 -11
-2 -15 -25 -15 -17 0 -28 4 -25 9 6 9 -36 41 -53 41 -6 0 -8 -7 -5 -15 4 -8
12 -15 20 -15 8 0 14 -6 14 -14 0 -8 6 -17 13 -20 6 -4 2 -4 -10 -2 -12 2 -25
-1 -28 -8 -3 -6 -3 -1 -1 12 3 14 -1 22 -10 22 -8 0 -14 9 -14 20 0 15 -6 19
-27 18 -16 -1 -31 -7 -35 -13 -5 -6 -8 -6 -8 3 0 7 -13 12 -31 12 -17 0 -28
-4 -24 -10 3 -5 2 -10 -4 -10 -5 0 -13 5 -16 10 -7 12 -75 14 -76 3z m71 -19
c0 -8 5 -12 10 -9 6 3 10 -1 10 -9 0 -9 -8 -16 -18 -16 -25 0 -31 7 -25 31 6
23 23 26 23 3z m54 1 c-5 -11 1 -15 21 -15 23 0 25 -3 19 -22 -3 -13 -11 -25
-16 -26 -5 -2 -3 -11 4 -20 9 -12 6 -11 -10 2 -14 12 -22 15 -22 7 0 -7 -8
-23 -18 -35 -14 -19 -20 -21 -30 -10 -6 7 -12 20 -12 28 0 8 -5 18 -11 22 -7
4 2 12 22 18 19 7 37 8 40 3 3 -5 9 -2 12 7 3 8 2 18 -3 21 -13 8 -13 35 0 35
5 0 7 -7 4 -15z m862 1 c16 -16 19 -36 5 -36 -5 0 -12 9 -16 19 -3 11 -14 22
-23 24 -15 4 -15 5 1 6 10 0 25 -5 33 -13z m-156 -36 c0 19 10 6 15 -19 2 -11
-1 -21 -6 -21 -6 0 -18 -7 -26 -16 -14 -13 -14 -17 -2 -25 11 -7 10 -9 -5 -9
-12 0 -16 -5 -12 -15 3 -9 0 -15 -9 -15 -26 0 -12 62 16 72 21 8 22 11 8 21
-9 7 -14 18 -11 25 3 10 7 10 18 1 11 -9 14 -8 14 1z m96 1 c-4 -5 4 -7 16 -3
22 5 22 5 5 -15 -11 -12 -27 -19 -43 -17 -33 3 -39 10 -19 18 11 4 14 2 9 -6
-4 -7 -3 -8 5 -4 6 4 9 12 5 17 -3 5 -9 7 -14 4 -5 -3 -11 -1 -15 5 -4 6 6 10
25 10 17 0 29 -4 26 -9z m158 3 c14 -5 14 -9 4 -22 -10 -12 -10 -16 0 -19 6
-3 12 -20 12 -39 0 -27 -4 -34 -20 -34 -11 0 -20 4 -20 10 0 5 7 7 15 4 11 -5
15 1 15 17 0 19 -2 21 -10 9 -7 -11 -10 -7 -10 18 0 17 -4 32 -10 32 -5 0 -10
7 -10 15 0 16 9 19 34 9z m-734 -17 c0 -8 -15 -14 -37 -15 -21 -2 -41 -8 -45
-15 -5 -8 -8 -6 -8 6 0 13 8 17 35 17 19 0 35 5 35 10 0 6 5 10 10 10 6 0 10
-6 10 -13z m430 -18 c0 -6 -4 -7 -10 -4 -5 3 -10 11 -10 16 0 6 5 7 10 4 6 -3
10 -11 10 -16z m250 -3 c21 -9 28 -16 20 -21 -7 -4 -9 -17 -6 -31 4 -14 2 -24
-4 -24 -5 0 -10 7 -10 16 0 14 -3 14 -15 4 -9 -7 -15 -8 -15 -2 0 5 7 12 15
16 30 11 15 42 -17 37 -5 0 -8 4 -8 9 0 13 1 13 40 -4z m-503 -14 c19 -31 -1
-48 -20 -18 -20 30 -21 36 -4 36 7 0 17 -8 24 -18z m153 8 c0 -5 -2 -10 -4
-10 -3 0 -8 5 -11 10 -3 6 -1 10 4 10 6 0 11 -4 11 -10z m-337 -22 c8 -28 0
-37 -10 -12 -3 10 -11 22 -17 26 -7 5 -5 8 5 8 9 0 19 -10 22 -22z m302 12 c3
-5 1 -10 -4 -10 -6 0 -11 5 -11 10 0 6 2 10 4 10 3 0 8 -4 11 -10z m-395 -21
c0 -6 -4 -7 -10 -4 -5 3 -10 11 -10 16 0 6 5 7 10 4 6 -3 10 -11 10 -16z m628
-4 c-3 -3 -9 2 -12 12 -6 14 -5 15 5 6 7 -7 10 -15 7 -18z m82 9 c0 -2 -7 -4
-15 -4 -8 0 -15 4 -15 10 0 5 7 7 15 4 8 -4 15 -8 15 -10z m-740 -26 c0 -4
-11 -3 -25 4 -13 6 -22 15 -19 19 5 9 44 -11 44 -23z m83 18 c6 -15 -1 -26
-15 -26 -4 0 -8 6 -8 14 0 8 -6 17 -12 19 -7 3 -3 6 8 6 12 1 24 -5 27 -13z
m384 -8 c-3 -8 -6 -5 -6 6 -1 11 2 17 5 13 3 -3 4 -12 1 -19z m43 12 c0 -5 -2
-10 -4 -10 -3 0 -8 5 -11 10 -3 6 -1 10 4 10 6 0 11 -4 11 -10z m27 -30 c-1
-14 -5 -16 -13 -9 -7 6 -10 17 -7 25 7 19 22 8 20 -16z m-611 -15 c-3 -9 -11
-13 -17 -9 -8 4 -7 9 2 15 11 7 11 9 1 9 -7 0 -10 5 -6 11 10 16 28 -6 20 -26z
m774 20 c0 -2 -7 -5 -15 -9 -9 -3 -15 0 -15 9 0 9 6 12 15 9 8 -4 15 -7 15 -9z
m245 6 c3 -5 1 -12 -5 -16 -5 -3 -10 1 -10 9 0 18 6 21 15 7z m-772 -18 c-7
-2 -19 -2 -25 0 -7 3 -2 5 12 5 14 0 19 -2 13 -5z m-297 -12 c-4 -5 0 -12 6
-14 7 -3 -2 -6 -20 -6 -28 -1 -31 1 -20 14 14 15 43 21 34 6z m184 -6 c7 -9 8
-15 2 -15 -5 0 -12 7 -16 15 -3 8 -4 15 -2 15 2 0 9 -7 16 -15z"/>
<path d="M1518 3033 c7 -3 16 -2 19 1 4 3 -2 6 -13 5 -11 0 -14 -3 -6 -6z"/>
<path d="M2395 3030 c3 -5 11 -10 16 -10 6 0 7 5 4 10 -3 6 -11 10 -16 10 -6
0 -7 -4 -4 -10z"/>
<path d="M2434 3028 c-3 -5 -4 -8 -2 -9 2 0 14 -3 27 -5 33 -6 31 -4 36 -65 5
-69 4 -68 18 -39 l11 25 4 -30 c4 -28 16 -44 35 -45 13 0 8 27 -8 40 -8 7 -15
21 -15 32 0 10 -4 16 -10 13 -5 -3 -10 -1 -10 5 0 7 8 9 20 5 11 -4 20 -2 20
4 0 6 -14 11 -30 11 -26 0 -30 3 -26 23 2 13 1 29 -3 35 -8 13 -60 12 -67 0z"/>
<path d="M2526 3025 c4 -8 8 -15 10 -15 2 0 4 7 4 15 0 8 -4 15 -10 15 -5 0
-7 -7 -4 -15z"/>
<path d="M2721 3024 c0 -11 3 -14 6 -6 3 7 2 16 -1 19 -3 4 -6 -2 -5 -13z"/>
<path d="M2771 3024 c0 -11 3 -14 6 -6 3 7 2 16 -1 19 -3 4 -6 -2 -5 -13z"/>
<path d="M2844 3004 c0 -20 -7 -40 -15 -45 -9 -5 -10 -9 -2 -9 6 0 13 -17 15
-37 2 -31 7 -39 26 -41 12 -2 22 2 22 9 0 9 4 8 15 -1 12 -10 15 -9 15 8 0 11
-6 22 -12 25 -7 2 -10 7 -7 11 3 3 14 4 23 0 13 -5 16 -14 12 -30 -6 -21 -3
-24 19 -22 30 3 58 28 31 28 -9 0 -16 5 -16 11 0 6 7 9 15 5 8 -3 15 -1 15 4
0 6 -9 10 -20 10 -11 0 -20 -5 -20 -11 0 -6 -7 -4 -15 5 -8 8 -15 20 -15 26 0
7 -9 9 -22 5 -13 -3 -18 -3 -12 2 9 7 10 27 5 76 -1 4 -13 7 -29 7 -24 0 -27
-4 -28 -36z"/>
<path d="M395 3020 c3 -5 8 -10 11 -10 2 0 4 5 4 10 0 6 -5 10 -11 10 -5 0 -7
-4 -4 -10z"/>
<path d="M430 3015 c-11 -13 -10 -14 4 -9 9 3 16 10 16 15 0 13 -6 11 -20 -6z"/>
<path d="M947 3014 c5 -13 2 -15 -15 -10 -15 5 -24 1 -32 -14 -16 -30 -7 -35
31 -16 18 9 40 16 51 16 11 0 18 7 18 20 0 11 -4 20 -10 20 -5 0 -10 -8 -10
-17 -1 -17 -1 -17 -11 0 -13 22 -31 23 -22 1z"/>
<path d="M1040 3021 c0 -6 5 -13 10 -16 6 -3 10 1 10 9 0 9 -4 16 -10 16 -5 0
-10 -4 -10 -9z"/>
<path d="M2359 3016 c6 -7 9 -21 5 -30 -8 -20 9 -21 26 -1 10 11 9 18 -3 30
-20 20 -44 21 -28 1z"/>
<path d="M1013 3000 c-17 -26 -16 -40 1 -40 8 0 22 -10 30 -22 9 -12 16 -17
16 -10 0 6 8 13 18 13 9 1 4 4 -13 8 -24 5 -31 12 -35 39 -5 31 -6 32 -17 12z"/>
<path d="M2570 3010 c0 -5 -12 -10 -27 -11 l-28 -1 25 -8 c16 -4 29 -3 35 5 6
6 17 14 25 18 10 4 8 6 -7 6 -13 1 -23 -3 -23 -9z"/>
<path d="M2645 3010 c-3 -5 -15 -10 -26 -10 -10 0 -19 -6 -19 -14 0 -8 -8 -17
-17 -19 -14 -4 -13 -5 4 -6 23 -1 23 -2 7 -73 -4 -21 -2 -28 10 -28 9 0 16 4
16 10 0 5 6 7 14 4 10 -4 12 2 8 23 l-5 28 22 -27 c27 -33 49 -38 27 -6 -22
31 -20 38 9 38 14 0 25 5 25 10 0 6 7 10 15 10 8 0 15 7 15 16 0 14 -1 14 -16
0 -21 -21 -44 -20 -44 2 0 13 -2 14 -9 3 -13 -21 -29 -5 -23 24 4 25 -2 33
-13 15z m-1 -34 c-3 -8 -12 -12 -20 -9 -17 6 -9 23 11 23 8 0 12 -6 9 -14z
m24 -33 c-10 -2 -26 -2 -35 0 -10 3 -2 5 17 5 19 0 27 -2 18 -5z m-38 -43 c0
-5 -2 -10 -4 -10 -3 0 -8 5 -11 10 -3 6 -1 10 4 10 6 0 11 -4 11 -10z"/>
<path d="M2977 3000 c-3 -11 -2 -20 3 -20 4 0 10 9 13 20 3 11 2 20 -3 20 -4
0 -10 -9 -13 -20z"/>
<path d="M3022 3003 c-5 -10 -7 -24 -5 -30 3 -7 -2 -13 -11 -13 -9 0 -16 -5
-16 -11 0 -6 10 -9 23 -7 18 2 22 9 22 40 0 43 -1 45 -13 21z"/>
<path d="M323 2995 c-3 -9 -3 -18 -1 -21 3 -3 8 4 11 16 6 23 -1 27 -10 5z"/>
<path d="M2680 2999 c0 -5 5 -7 10 -4 6 3 10 8 10 11 0 2 -4 4 -10 4 -5 0 -10
-5 -10 -11z"/>
<path d="M2920 2984 c0 -8 5 -12 10 -9 6 3 10 10 10 16 0 5 -4 9 -10 9 -5 0
-10 -7 -10 -16z"/>
<path d="M2460 2981 c0 -6 5 -13 10 -16 6 -3 10 1 10 9 0 9 -4 16 -10 16 -5 0
-10 -4 -10 -9z"/>
<path d="M950 2960 c0 -4 9 -10 20 -13 11 -3 20 -11 20 -19 0 -8 15 -19 33
-26 41 -15 47 -15 47 -2 0 6 -9 10 -20 10 -13 0 -18 5 -14 15 4 8 1 15 -5 15
-6 0 -11 -4 -11 -10 0 -5 -5 -10 -10 -10 -6 0 -10 7 -8 17 2 10 -7 19 -24 24
-16 4 -28 4 -28 -1z"/>
<path d="M2423 2928 c1 -24 23 -47 45 -48 6 0 12 5 12 10 0 6 -7 10 -15 10 -8
0 -17 11 -21 25 -8 31 -23 33 -21 3z"/>
<path d="M2561 2933 c-7 -8 -11 -16 -8 -19 6 -7 37 7 37 16 0 16 -15 18 -29 3z"/>
<path d="M2760 2933 c0 -15 -2 -16 -10 -3 -7 10 -12 12 -17 4 -5 -6 -13 -13
-19 -15 -7 -3 -6 -12 3 -29 10 -19 13 -21 13 -7 0 10 5 15 10 12 6 -4 8 -11 5
-16 -4 -5 -2 -9 3 -9 5 0 13 10 17 23 8 22 8 21 12 -4 3 -20 9 -26 23 -22 18
5 36 43 19 43 -5 0 -9 -6 -10 -12 0 -7 -5 2 -10 20 -10 34 -39 45 -39 15z"/>
<path d="M3015 2905 c0 -14 3 -25 6 -25 4 0 9 11 11 25 3 15 1 25 -6 25 -6 0
-11 -11 -11 -25z"/>
<path d="M1089 2891 c9 -6 10 -11 2 -15 -14 -9 -5 -26 13 -26 20 0 27 38 9 44
-23 9 -40 7 -24 -3z"/>
<path d="M2495 2870 c-3 -5 1 -10 10 -10 9 0 13 5 10 10 -3 6 -8 10 -10 10 -2
0 -7 -4 -10 -10z"/>
<path d="M2694 2801 c-6 -7 -404 -17 -946 -25 -54 0 -98 -3 -98 -6 0 -3 -42
-5 -92 -5 -51 0 -190 -3 -308 -7 -118 -4 -351 -10 -517 -14 -166 -3 -310 -7
-320 -9 -10 -2 -107 -4 -215 -4 l-198 -1 0 -1365 0 -1365 1520 0 1520 0 -2
1402 -3 1401 -168 1 c-93 1 -171 -1 -173 -3z m-903 -186 c59 -21 92 -55 124
-127 23 -50 26 -70 22 -111 -6 -47 -4 -53 28 -88 31 -34 33 -41 24 -71 -5 -18
-9 -35 -9 -38 0 -3 -4 1 -8 8 -10 14 -68 33 -76 24 -11 -11 -5 -148 9 -207 8
-33 15 -86 15 -118 0 -38 7 -71 20 -97 24 -47 26 -88 5 -117 -8 -12 -12 -29
-9 -38 8 -19 -22 -55 -45 -55 -27 1 -64 38 -58 60 6 23 -17 44 -52 47 -14 2
-44 5 -66 7 -55 5 -55 5 -55 16 0 6 11 10 25 10 18 0 25 5 25 18 0 11 12 24
26 30 40 19 29 55 -19 63 -61 10 -63 15 -70 164 -3 71 -8 76 -72 69 -57 -6
-69 2 -39 27 17 14 84 112 84 123 0 3 -15 6 -32 7 l-33 1 40 10 c22 6 48 16
58 23 16 11 16 13 0 26 -15 12 -16 12 -10 -4 5 -14 3 -16 -11 -8 -9 4 -26 5
-37 0 -31 -12 -36 -10 -24 10 7 10 34 24 61 31 27 8 47 19 44 24 -4 12 -7 12
-49 2 -18 -4 -26 -3 -22 3 3 6 -12 19 -33 30 -21 11 -45 27 -53 37 -13 16 -11
17 34 11 50 -7 55 -3 32 27 -8 10 -11 24 -7 30 12 20 11 39 -4 69 -14 27 -14
28 3 24 10 -3 30 -8 46 -11 15 -4 27 -13 27 -21 0 -13 56 -35 91 -35 9 0 20
-7 23 -15 5 -13 0 -15 -32 -9 -20 4 -48 11 -61 16 -22 8 -23 7 -10 -8 13 -16
11 -17 -16 -10 l-30 6 25 -22 c14 -13 38 -33 54 -45 15 -12 25 -27 21 -33 -3
-6 -10 -8 -15 -5 -4 3 -10 -2 -14 -10 -4 -10 1 -15 14 -15 11 0 20 7 20 15 0
10 10 15 29 15 16 0 53 5 81 12 83 19 86 54 10 127 -27 26 -36 30 -38 17 -2
-9 -7 -16 -11 -16 -11 0 -57 52 -64 73 -8 22 -51 22 -149 2 -74 -16 -103 -30
-148 -70 -24 -22 -90 -44 -90 -29 0 4 8 13 18 20 15 12 14 13 -13 14 -16 0
-55 -7 -85 -15 -61 -16 -87 -19 -52 -5 22 9 31 30 12 30 -5 0 -10 5 -10 11 0
6 8 8 20 4 10 -3 50 3 88 14 38 12 86 21 107 21 35 0 117 12 210 30 64 13 109
11 156 -5z m-317 -298 c-7 -19 -44 -23 -44 -6 0 16 33 39 43 30 4 -4 5 -15 1
-24z m95 -495 c1 -44 -3 -74 -12 -86 -13 -18 -16 -18 -63 14 -58 40 -64 47
-64 81 0 28 26 44 85 52 17 2 35 5 41 6 7 0 12 -24 13 -67z m235 -192 c18 -18
18 -20 3 -26 -9 -3 -17 -14 -16 -23 0 -10 2 -11 6 -3 8 20 23 13 23 -11 0 -30
-25 -52 -67 -60 -26 -5 -35 -2 -43 12 -11 22 2 37 40 43 18 2 26 10 28 29 3
30 -15 39 -80 39 -21 0 -38 4 -38 9 0 28 115 20 144 -9z m38 -142 c8 -13 23
-44 33 -70 l18 -48 -28 -57 c-16 -32 -38 -71 -49 -88 -12 -16 -20 -32 -19 -35
4 -15 -19 -32 -60 -45 -59 -18 -61 -6 -7 55 29 32 40 52 39 75 -1 16 -3 22 -6
13 -2 -10 -8 -18 -12 -18 -5 0 -24 -3 -42 -6 -34 -6 -34 -6 -11 10 26 20 58
76 42 76 -15 0 -12 15 12 68 21 47 55 92 69 92 4 0 13 -10 21 -22z m-167 -349
c-11 -17 -57 -31 -68 -20 -16 16 3 31 39 31 22 0 33 -4 29 -11z m40 -96 c-20
-18 -35 -33 -32 -33 3 0 -8 -14 -25 -31 -21 -20 -36 -28 -47 -23 -13 6 -12 8
7 11 27 5 29 19 2 26 -24 6 -26 25 -5 33 19 8 47 -14 38 -29 -4 -6 -1 -7 6 -3
7 5 10 14 7 22 -3 8 1 14 10 14 8 0 13 4 9 9 -3 5 8 18 25 27 16 10 30 23 31
29 0 5 3 4 6 -4 3 -9 -9 -28 -32 -48z m-223 -55 c-7 -7 -12 -8 -12 -2 0 14 12
26 19 19 2 -3 -1 -11 -7 -17z m98 -84 c0 -26 1 -26 25 -10 24 16 24 16 14 -6
-5 -13 -22 -59 -37 -103 -18 -54 -33 -81 -45 -83 -12 -2 -15 1 -11 12 3 9 1
16 -5 16 -6 0 -11 7 -11 15 0 8 -5 15 -10 15 -6 0 -16 11 -22 25 -6 14 -18 25
-25 25 -8 0 -11 5 -8 10 3 6 15 10 26 10 10 0 19 5 19 12 0 6 8 4 19 -6 22
-20 23 -18 41 47 14 51 30 63 30 21z m-43 -236 c-3 -8 -6 -5 -6 6 -1 11 2 17
5 13 3 -3 4 -12 1 -19z"/>
<path d="M1774 2334 c3 -9 6 -18 6 -20 0 -2 9 -4 20 -4 19 0 19 1 3 20 -21 24
-38 26 -29 4z"/>
<path d="M1712 2066 c-35 -11 -37 -22 -10 -88 9 -25 16 -28 54 -28 23 0 45 4
49 9 3 5 19 12 35 16 40 9 38 30 -6 71 -38 36 -62 40 -122 20z"/>
<path d="M1910 1763 c0 -10 -3 -35 -6 -55 -5 -30 -3 -38 9 -38 8 0 18 7 21 16
13 34 3 94 -15 94 -5 0 -9 -8 -9 -17z"/>
</g>
</svg>
